<svg width="16" height="16" viewBox="0 0 16 16" fill="none" xmlns="http://www.w3.org/2000/svg">
    <g clip-path="url(#clip0_90_6379)">
        <path d="M13.1674 11.0211L10.4504 9.81407C10.1681 9.68782 9.85191 9.65859 9.55124 9.73096C9.25058 9.80332 8.98233 9.9732 8.78838 10.2141L8.00538 11.1931C6.72168 10.3693 5.62893 9.28067 4.80038 8.00007L5.77938 7.21707C6.02003 7.02318 6.18977 6.75511 6.26212 6.45466C6.33448 6.15421 6.30539 5.83826 6.17938 5.55607L4.97938 2.83207C4.84476 2.52875 4.60677 2.28311 4.30786 2.13897C4.00895 1.99482 3.66855 1.96155 3.34738 2.04507L1.04738 2.64507C0.714076 2.73182 0.424442 2.93838 0.233866 3.22526C0.0432902 3.51214 -0.034852 3.8592 0.0143827 4.20007C0.442982 7.17478 1.82344 9.93069 3.94914 12.0553C6.07484 14.1799 8.83145 15.559 11.8064 15.9861C12.1473 16.0343 12.4941 15.9553 12.7804 15.764C13.0667 15.5726 13.2725 15.2825 13.3584 14.9491L13.9584 12.6491C14.0418 12.328 14.008 11.9876 13.863 11.6892C13.718 11.3908 13.4714 11.1539 13.1674 11.0211Z" fill="#F4364C"/>
        <path d="M10 8C10 8.26522 10.1054 8.51957 10.2929 8.70711C10.4804 8.89464 10.7348 9 11 9C11.2652 9 11.5196 8.89464 11.7071 8.70711C11.8946 8.51957 12 8.26522 12 8C12 6.93913 11.5786 5.92172 10.8284 5.17157C10.0783 4.42143 9.06087 4 8 4C7.73478 4 7.48043 4.10536 7.29289 4.29289C7.10536 4.48043 7 4.73478 7 5C7 5.26522 7.10536 5.51957 7.29289 5.70711C7.48043 5.89464 7.73478 6 8 6C8.53043 6 9.03914 6.21071 9.41421 6.58579C9.78929 6.96086 10 7.46957 10 8Z" fill="#F4364C"/>
        <path d="M8 0C7.73478 0 7.48043 0.105357 7.29289 0.292893C7.10536 0.48043 7 0.734784 7 1C7 1.26522 7.10536 1.51957 7.29289 1.70711C7.48043 1.89464 7.73478 2 8 2C9.59081 2.00159 11.116 2.63424 12.2409 3.75911C13.3658 4.88399 13.9984 6.40919 14 8C14 8.26522 14.1054 8.51957 14.2929 8.70711C14.4804 8.89464 14.7348 9 15 9C15.2652 9 15.5196 8.89464 15.7071 8.70711C15.8946 8.51957 16 8.26522 16 8C15.9976 5.879 15.154 3.84555 13.6542 2.34578C12.1544 0.846002 10.121 0.00238211 8 0Z" fill="#F4364C"/>
    </g>
    <defs>
        <clipPath id="clip0_90_6379">
            <rect width="16" height="16" fill="white"/>
        </clipPath>
    </defs>
</svg>
