<svg width="16" height="16" viewBox="0 0 16 16" fill="none" xmlns="http://www.w3.org/2000/svg">
    <g clip-path="url(#clip0_90_6386)">
        <path d="M14 1H2C1.46957 1 0.960859 1.21071 0.585786 1.58579C0.210714 1.96086 0 2.46957 0 3L0 3.4L8 7.9L16 3.5V3C16 2.46957 15.7893 1.96086 15.4142 1.58579C15.0391 1.21071 14.5304 1 14 1Z" fill="#F4364C"/>
        <path d="M7.5 9.89922L0 5.69922V12.9992C0 13.5297 0.210714 14.0384 0.585786 14.4134C0.960859 14.7885 1.46957 14.9992 2 14.9992H14C14.5304 14.9992 15.0391 14.7885 15.4142 14.4134C15.7893 14.0384 16 13.5297 16 12.9992V5.69922L8.5 9.89922C8.3424 9.96846 8.17214 10.0042 8 10.0042C7.82786 10.0042 7.6576 9.96846 7.5 9.89922Z" fill="#F4364C"/>
    </g>
    <defs>
        <clipPath id="clip0_90_6386">
            <rect width="16" height="16" fill="white"/>
        </clipPath>
    </defs>
</svg>
